<svg width="23" height="24" viewBox="0 0 23 24" fill="none" xmlns="http://www.w3.org/2000/svg">
<path fill-rule="evenodd" clip-rule="evenodd" d="M15.7476 5.89455C15.7476 9.15001 13.1085 11.7891 9.85303 11.7891C6.59757 11.7891 3.9585 9.15001 3.9585 5.89455C3.9585 2.63908 6.59757 0 9.85303 0C13.1085 0 15.7476 2.63908 15.7476 5.89455ZM16.9265 11.718C17.6169 11.718 18.1765 12.2776 18.1765 12.968V16.4336H21.6422C22.3325 16.4336 22.8922 16.9933 22.8922 17.6836C22.8922 18.374 22.3325 18.9336 21.6422 18.9336H18.1765V22.3993C18.1765 23.0896 17.6169 23.6493 16.9265 23.6493C16.2361 23.6493 15.6765 23.0896 15.6765 22.3993V18.9336H12.2109C11.5205 18.9336 10.9609 18.374 10.9609 17.6836C10.9609 16.9933 11.5205 16.4336 12.2109 16.4336H15.6765V12.968C15.6765 12.2776 16.2361 11.718 16.9265 11.718ZM11.4152 14.2365C10.8988 14.1776 10.3781 14.1477 9.85309 14.1469C7.51767 14.1469 5.2471 14.7458 3.39386 15.8528C1.9556 16.711 0.830905 17.8381 0.116488 19.1195C-0.2077 19.7019 0.181338 20.3833 0.832095 20.5189C4.96887 21.3819 9.19763 21.6436 13.3898 21.3076V21.2204H12.2109C11.3414 21.2215 10.502 20.9024 9.85291 20.3238C9.20383 19.7453 8.79062 18.9479 8.6922 18.084C8.59375 17.2201 8.81699 16.3503 9.31928 15.6405C9.82157 14.9308 10.5677 14.431 11.4152 14.2365Z" fill="#ADADAD"/>
</svg>
