<svg width="17" height="20" viewBox="0 0 17 20" fill="none" xmlns="http://www.w3.org/2000/svg">
<path d="M13.3989 18.72C12.3598 19.7492 11.2253 19.5867 10.1332 19.0992C8.9775 18.6008 7.91722 18.5792 6.69789 19.0992C5.17109 19.7708 4.36527 19.5758 3.45343 18.72C-1.72076 13.2708 -0.957353 4.9725 4.91662 4.66917C6.348 4.745 7.34467 5.47083 8.18229 5.53583C9.43343 5.27583 10.6315 4.52833 11.9675 4.62583C13.5685 4.75583 14.7773 5.40583 15.5725 6.57583C12.2644 8.60167 13.049 13.0542 16.0814 14.3C15.477 15.925 14.6924 17.5392 13.3883 18.7308L13.3989 18.72ZM8.07626 4.60417C7.91722 2.18833 9.83634 0.195 12.0417 0C12.3492 2.795 9.56066 4.875 8.07626 4.60417Z" fill="black"/>
</svg>
