<svg width="28" height="28" viewBox="0 0 28 28" fill="none" xmlns="http://www.w3.org/2000/svg">
<path fill-rule="evenodd" clip-rule="evenodd" d="M5.59998 5.6C5.59998 4.48609 6.04248 3.4178 6.83013 2.63015C7.61778 1.84249 8.68607 1.39999 9.79998 1.39999H23.8C24.9139 1.39999 25.9822 1.84249 26.7699 2.63015C27.5575 3.4178 28 4.48609 28 5.6V22.4C28 23.5139 27.5575 24.5822 26.7699 25.3699C25.9822 26.1575 24.9139 26.6 23.8 26.6H18.886C19.356 25.7869 19.6023 24.8638 19.6 23.9246V16.3114C19.5984 15.5892 19.4524 14.8745 19.1707 14.2095C18.8889 13.5445 18.477 12.9425 17.9592 12.439L12.3592 6.9636C10.528 5.1716 7.74198 4.8818 5.59998 6.0914V5.6ZM21 7C21 6.6287 21.1475 6.2726 21.41 6.01005C21.6726 5.7475 22.0287 5.6 22.4 5.6C22.7713 5.6 23.1288 5.7475 23.3913 6.01005C23.6539 6.2726 23.8014 6.6287 23.8014 7C23.8014 7.37131 23.6539 7.7274 23.3913 7.98995C23.1288 8.2525 22.7727 8.4 22.4014 8.4C22.0301 8.4 21.6726 8.2525 21.41 7.98995C21.1475 7.7274 21 7.37131 21 7ZM16.8 5.6C16.4287 5.6 16.0726 5.7475 15.81 6.01005C15.5475 6.2726 15.4 6.6287 15.4 7C15.4 7.37131 15.5475 7.7274 15.81 7.98995C16.0726 8.2525 16.4287 8.4 16.8 8.4H16.8014C17.1727 8.4 17.5288 8.2525 17.7913 7.98995C18.0539 7.7274 18.2014 7.37131 18.2014 7C18.2014 6.6287 18.0539 6.2726 17.7913 6.01005C17.5288 5.7475 17.1727 5.6 16.8014 5.6H16.8ZM21 14C21 13.6287 21.1475 13.2726 21.41 13.0101C21.6726 12.7475 22.0287 12.6 22.4 12.6C22.7713 12.6 23.1288 12.7475 23.3913 13.0101C23.6539 13.2726 23.8014 13.6287 23.8014 14C23.8014 14.3713 23.6539 14.7274 23.3913 14.99C23.1288 15.2525 22.7727 15.4 22.4014 15.4C22.0301 15.4 21.6726 15.2525 21.41 14.99C21.1475 14.7274 21 14.3713 21 14ZM22.4 19.6C22.0287 19.6 21.6726 19.7475 21.41 20.0101C21.1475 20.2726 21 20.6287 21 21C21 21.3713 21.1475 21.7274 21.41 21.99C21.6726 22.2525 22.0287 22.4 22.4 22.4C22.7713 22.4 23.1288 22.2525 23.3913 21.99C23.6539 21.7274 23.8014 21.3713 23.8014 21C23.8014 20.6287 23.6539 20.2726 23.3913 20.0101C23.1288 19.7475 22.7713 19.6 22.4 19.6Z" fill="#ADADAD"/>
<path fill-rule="evenodd" clip-rule="evenodd" d="M5.43055 9.3898C6.21816 8.60242 7.28626 8.1601 8.39995 8.1601C9.51364 8.1601 10.5817 8.60242 11.3694 9.3898L15.5694 13.5898C16.3571 14.3773 16.7997 15.4454 16.8 16.5592V22.4C16.8 23.5139 16.3575 24.5822 15.5698 25.3699C14.7822 26.1575 13.7139 26.6 12.6 26.6H9.79995V22.4C9.79995 22.0287 9.65245 21.6726 9.3899 21.4101C9.12735 21.1475 8.77125 21 8.39995 21C8.02865 21 7.67255 21.1475 7.41 21.4101C7.14745 21.6726 6.99995 22.0287 6.99995 22.4V26.6H4.19994C3.08603 26.6 2.01775 26.1575 1.23009 25.3699C0.442438 24.5822 -6.10352e-05 23.5139 -6.10352e-05 22.4V16.5592C0.000547991 15.4459 0.443175 14.3783 1.23054 13.5912L5.43055 9.3898Z" fill="#ADADAD"/>
</svg>
