<svg width="18" height="19" viewBox="0 0 18 19" fill="none" xmlns="http://www.w3.org/2000/svg">
<path d="M6.04531 0.492466C4.22913 1.12251 2.66286 2.31837 1.57656 3.90437C0.490263 5.49038 -0.0588099 7.38294 0.00999469 9.30407C0.0787993 11.2252 0.761855 13.0736 1.95883 14.5779C3.15581 16.0821 4.80361 17.1628 6.66021 17.6613C8.16539 18.0497 9.74238 18.0668 11.2556 17.711C12.6265 17.4031 13.8938 16.7445 14.9336 15.7996C16.0159 14.7862 16.8014 13.4969 17.2058 12.0704C17.6453 10.5192 17.7235 8.88793 17.4344 7.30179H8.98205V10.808H13.8771C13.7793 11.3672 13.5696 11.9009 13.2607 12.3772C12.9518 12.8535 12.55 13.2626 12.0793 13.58C11.4815 13.9754 10.8077 14.2414 10.1011 14.3611C9.39238 14.4928 8.66545 14.4928 7.95675 14.3611C7.23845 14.2125 6.55895 13.9161 5.96153 13.4905C5.00176 12.8111 4.2811 11.846 3.9024 10.7327C3.51729 9.59863 3.51729 8.36914 3.9024 7.23505C4.17197 6.4401 4.6176 5.71631 5.20604 5.11769C5.87943 4.42007 6.73197 3.92141 7.67011 3.67641C8.60826 3.43142 9.59576 3.44956 10.5243 3.72885C11.2496 3.95151 11.9129 4.34053 12.4613 4.86492C13.0132 4.31582 13.5642 3.7653 14.1143 3.21336C14.3983 2.91656 14.7079 2.63396 14.9876 2.33006C14.1506 1.55111 13.168 0.944987 12.0963 0.546429C10.1447 -0.162209 8.00926 -0.181253 6.04531 0.492466Z" fill="white"/>
<path d="M6.04531 0.492454C8.0091 -0.181723 10.1445 -0.16318 12.0963 0.544997C13.1682 0.946263 14.1503 1.5553 14.9862 2.33715C14.7022 2.64105 14.4025 2.92507 14.1128 3.22044C13.5618 3.77049 13.0113 4.31865 12.4613 4.86491C11.9129 4.34052 11.2496 3.95149 10.5243 3.72884C9.59606 3.44857 8.60859 3.42938 7.6702 3.67337C6.73181 3.91736 5.87875 4.41511 5.20462 5.112C4.61618 5.71062 4.17054 6.43441 3.90097 7.22935L0.95713 4.95011C2.01085 2.86054 3.83529 1.26218 6.04531 0.492454Z" fill="#E33629"/>
<path d="M0.176087 7.40607C0.334315 6.62189 0.597006 5.86247 0.957136 5.14813L3.90098 7.43305C3.51587 8.56715 3.51587 9.79664 3.90098 10.9307C2.92017 11.6881 1.93889 12.4493 0.957136 13.2142C0.0555934 11.4197 -0.219361 9.37503 0.176087 7.40607Z" fill="#F8BD00"/>
<path d="M8.98205 7.59238H17.4344C17.7235 9.17852 17.6453 10.8098 17.2058 12.361C16.8014 13.7875 16.0159 15.0767 14.9336 16.0902C13.9836 15.3489 13.0293 14.6133 12.0793 13.872C12.5503 13.5543 12.9523 13.1448 13.2612 12.668C13.5701 12.1911 13.7796 11.6569 13.8771 11.0972H8.98205C8.98063 9.92984 8.98205 8.76111 8.98205 7.59238Z" fill="#587DBD"/>
<path d="M0.955711 13.4455C1.93747 12.6881 2.91875 11.927 3.89955 11.162C4.27901 12.2756 5.0007 13.2409 5.96152 13.9198C6.56081 14.3434 7.24178 14.6374 7.96101 14.7832C8.66971 14.915 9.39664 14.915 10.1053 14.7832C10.812 14.6636 11.4858 14.3976 12.0835 14.0022C13.0336 14.7435 13.9879 15.4791 14.9379 16.2204C13.8982 17.1658 12.6309 17.8249 11.2599 18.1332C9.74664 18.489 8.16965 18.4719 6.66447 18.0835C5.47401 17.7657 4.36204 17.2053 3.39826 16.4376C2.37816 15.6278 1.54498 14.6071 0.955711 13.4455Z" fill="#319F43"/>
</svg>
