<svg width="28" height="28" viewBox="0 0 28 28" fill="none" xmlns="http://www.w3.org/2000/svg">
<path fill-rule="evenodd" clip-rule="evenodd" d="M14.5 2C11.1848 2 8.00537 3.31696 5.66117 5.66116C3.31696 8.00537 2 11.1848 2 14.5C2 17.8152 3.31696 20.9946 5.66117 23.3388C8.00537 25.683 11.1848 27 14.5 27H20.75C22.6917 27 23.6625 27 24.4278 26.6833C24.9335 26.4739 25.3929 26.167 25.7799 25.7799C26.167 25.3929 26.4739 24.9335 26.6833 24.4278C27 23.6625 27 22.6917 27 20.75V14.5C27 11.1848 25.683 8.00537 23.3388 5.66116C20.9946 3.31696 17.8152 2 14.5 2ZM8.94444 13.1111C8.94444 12.7428 9.09077 12.3895 9.35124 12.129C9.61171 11.8686 9.96498 11.7222 10.3333 11.7222H18.6667C19.035 11.7222 19.3883 11.8686 19.6488 12.129C19.9092 12.3895 20.0556 12.7428 20.0556 13.1111C20.0556 13.4795 19.9092 13.8327 19.6488 14.0932C19.3883 14.3537 19.035 14.5 18.6667 14.5H10.3333C9.96498 14.5 9.61171 14.3537 9.35124 14.0932C9.09077 13.8327 8.94444 13.4795 8.94444 13.1111ZM13.1111 18.6667C13.1111 18.2983 13.2574 17.945 13.5179 17.6846C13.7784 17.4241 14.1316 17.2778 14.5 17.2778H18.6667C19.035 17.2778 19.3883 17.4241 19.6488 17.6846C19.9092 17.945 20.0556 18.2983 20.0556 18.6667C20.0556 19.035 19.9092 19.3883 19.6488 19.6488C19.3883 19.9092 19.035 20.0556 18.6667 20.0556H14.5C14.1316 20.0556 13.7784 19.9092 13.5179 19.6488C13.2574 19.3883 13.1111 19.035 13.1111 18.6667Z" fill="#ADADAD"/>
</svg>
