<svg width="28" height="28" viewBox="0 0 28 28" fill="none" xmlns="http://www.w3.org/2000/svg">
<path d="M14 1C15.7239 1 17.3772 1.68482 18.5962 2.90381C19.8152 4.12279 20.5 5.77609 20.5 7.5C20.5 9.22391 19.8152 10.8772 18.5962 12.0962C17.3772 13.3152 15.7239 14 14 14C12.2761 14 10.6228 13.3152 9.40381 12.0962C8.18482 10.8772 7.5 9.22391 7.5 7.5C7.5 5.77609 8.18482 4.12279 9.40381 2.90381C10.6228 1.68482 12.2761 1 14 1ZM14 27C14 27 27 27 27 23.75C27 19.85 20.6625 15.625 14 15.625C7.3375 15.625 1 19.85 1 23.75C1 27 14 27 14 27Z" fill="#ADADAD"/>
</svg>
